<?xml version="1.0" encoding="utf-8"?>
<!-- Uploaded to: SVG Repo, www.svgrepo.com, Generator: SVG Repo Mixer Tools -->
<svg width="800px" height="800px" viewBox="0 0 48 48" fill="none" xmlns="http://www.w3.org/2000/svg">
<g id="shop">
<g id="shop_2">
<path id="Combined Shape" fill-rule="evenodd" clip-rule="evenodd" d="M17.3657 11.5288C18.8458 9.33879 21.3084 8.00079 23.9992 8.00079C28.4189 8.00079 31.9992 11.5811 31.9992 16.0008V20.9468C31.9992 21.4991 32.4469 21.9468 32.9992 21.9468C33.5515 21.9468 33.9992 21.4991 33.9992 20.9468V20.2491C34.5996 20.5942 35.004 21.2419 35.004 21.9844C35.004 23.0881 34.1077 23.9844 33.004 23.9844C31.9003 23.9844 31.004 23.0881 31.004 21.9844C31.004 21.4321 30.5563 20.9844 30.004 20.9844C29.4517 20.9844 29.004 21.4321 29.004 21.9844C29.004 24.1927 30.7957 25.9844 33.004 25.9844C35.2123 25.9844 37.004 24.1927 37.004 21.9844C37.004 20.1184 35.7267 18.5515 33.9992 18.1092V16.0008V16H40.9996C41.5533 16 41.9996 16.4463 41.9996 17V39C41.9996 39.5537 41.5533 40 40.9996 40H6.9996C6.44589 40 5.9996 39.5537 5.9996 39V17C5.9996 16.4463 6.44589 16 6.9996 16H14V21.004C14 21.5563 14.4477 22.004 15 22.004C15.5523 22.004 16 21.5563 16 21.004V20.2496C16.6 20.5947 17.004 21.2422 17.004 21.9844C17.004 23.0881 16.1077 23.9844 15.004 23.9844C13.9003 23.9844 13.004 23.0881 13.004 21.9844C13.004 21.4321 12.5563 20.9844 12.004 20.9844C11.4517 20.9844 11.004 21.4321 11.004 21.9844C11.004 24.1927 12.7957 25.9844 15.004 25.9844C17.2123 25.9844 19.004 24.1927 19.004 21.9844C19.004 20.1187 17.7271 18.5519 16 18.1094V16H28.9316C29.4839 16 29.9316 15.5523 29.9316 15C29.9316 14.4477 29.4839 14 28.9316 14H6.9996C5.34132 14 3.9996 15.3417 3.9996 17V39C3.9996 40.6583 5.34132 42 6.9996 42H40.9996C42.6579 42 43.9996 40.6583 43.9996 39V17C43.9996 15.3417 42.6579 14 40.9996 14H33.7991C32.8727 9.43501 28.8382 6.00079 23.9992 6.00079C20.6369 6.00079 17.5568 7.67433 15.7087 10.4088C15.3994 10.8664 15.5197 11.4881 15.9772 11.7973C16.4348 12.1066 17.0565 11.9863 17.3657 11.5288Z" fill="#000000"/>
</g>
</g>
</svg>